<?xml version="1.0" standalone="no"?>
<!DOCTYPE svg PUBLIC "-//W3C//DTD SVG 20010904//EN"
 "http://www.w3.org/TR/2001/REC-SVG-20010904/DTD/svg10.dtd">
<svg version="1.0" xmlns="http://www.w3.org/2000/svg"
 width="300.000000pt" height="178.000000pt" viewBox="0 0 300.000000 178.000000"
 preserveAspectRatio="xMidYMid meet">
<metadata>
Created by potrace 1.10, written by Peter Selinger 2001-2011
</metadata>
<g transform="translate(0.000000,178.000000) scale(0.100000,-0.100000)"
fill="#5bb949" stroke="none">
<path d="M1174 1328 c-306 -310 -461 -492 -578 -676 -67 -106 -75 -156 -30
-191 47 -37 81 -28 226 60 73 45 148 91 166 103 18 11 88 57 156 101 170 109
167 107 126 91 -80 -31 -373 -169 -475 -222 -100 -53 -165 -74 -165 -55 0 32
193 287 222 295 12 3 19 8 15 12 -10 11 12 44 30 44 8 0 66 52 127 116 61 64
125 122 141 129 17 7 66 45 110 85 44 39 114 96 155 128 41 31 79 59 83 63 5
4 3 17 -3 30 -13 26 -80 99 -90 99 -3 0 -101 -96 -216 -212z"/>
<path d="M1680 955 c-123 -34 -261 -89 -370 -146 -52 -28 -99 -55 -104 -60 -6
-5 1 -21 20 -40 28 -30 31 -31 89 -24 33 3 89 12 125 20 94 19 182 23 187 8 3
-9 -6 -13 -26 -13 -17 0 -31 -4 -31 -10 0 -18 -312 -105 -349 -98 -9 2 11 14
44 25 33 12 52 22 43 22 -20 1 -249 -78 -262 -90 -23 -21 92 -6 245 32 90 22
229 54 308 70 79 17 161 39 183 50 l38 19 29 -21 c32 -24 35 -24 196 5 110 20
188 23 193 8 2 -7 -5 -12 -15 -12 -10 0 -31 -7 -48 -16 -58 -30 -363 -110
-344 -90 3 3 30 15 60 26 41 15 45 18 19 14 -43 -7 -205 -61 -240 -80 -50 -26
58 -16 215 22 83 20 220 51 306 69 86 18 176 43 199 55 l43 22 -22 21 c-20 21
-33 22 -201 25 -99 2 -180 7 -180 11 0 23 218 94 336 109 59 7 59 7 59 41 0
53 -20 58 -112 32 -165 -47 -361 -128 -456 -188 -35 -22 -43 -23 -88 -14 -28
6 -117 11 -199 11 -83 0 -150 4 -150 9 0 24 279 111 356 111 27 0 35 5 40 24
7 30 -11 66 -34 65 -9 0 -55 -11 -102 -24z"/>
<path d="M2133 683 c4 -3 10 -3 14 0 3 4 0 7 -7 7 -7 0 -10 -3 -7 -7z"/>
<path d="M1423 663 c4 -3 10 -3 14 0 3 4 0 7 -7 7 -7 0 -10 -3 -7 -7z"/>
<path d="M2038 663 c7 -3 16 -2 19 1 4 3 -2 6 -13 5 -11 0 -14 -3 -6 -6z"/>
<path d="M1368 653 c6 -2 18 -2 25 0 6 3 1 5 -13 5 -14 0 -19 -2 -12 -5z"/>
<path d="M1993 653 c4 -3 10 -3 14 0 3 4 0 7 -7 7 -7 0 -10 -3 -7 -7z"/>
</g>
</svg>
